<svg width="105" height="24" viewBox="0 0 105 24" fill="none" xmlns="http://www.w3.org/2000/svg">
<path d="M39.9297 7.20703C39.0508 6.71484 38.0488 6.45996 36.9414 6.45996H32.2393V18H36.9414C38.0664 18 39.0684 17.7627 39.9473 17.2705C40.8262 16.7871 41.5205 16.1104 42.0127 15.2402C42.5049 14.3701 42.751 13.3857 42.751 12.2783C42.751 11.1621 42.4961 10.1602 42.0039 9.28125C41.5029 8.40234 40.8086 7.70801 39.9297 7.20703ZM39.0859 14.7041C38.4883 15.3193 37.6885 15.627 36.6865 15.627H34.8672V8.8418H36.6865C37.6885 8.8418 38.4883 9.1582 39.0859 9.79102C39.6836 10.4238 39.9824 11.25 39.9824 12.2783C39.9824 13.2803 39.6836 14.0889 39.0859 14.7041ZM52.9727 9.87891H50.8633L50.6963 10.6699C50.0811 9.95801 49.1934 9.59766 48.0332 9.59766C47.2422 9.59766 46.5303 9.78223 45.915 10.1514C45.2998 10.5205 44.8164 11.0303 44.4824 11.6895C44.1396 12.3574 43.9727 13.1221 43.9727 14.001C43.9727 14.8447 44.1309 15.5918 44.4473 16.2246C44.7637 16.8574 45.2119 17.3584 45.792 17.71C46.3721 18.0615 47.0488 18.2373 47.8047 18.2373C48.376 18.2373 48.9121 18.1318 49.4043 17.9209C49.8965 17.71 50.2744 17.4287 50.5557 17.0684V18H52.9727V9.87891ZM49.8965 15.4072C49.5273 15.7852 49.0527 15.9697 48.4727 15.9697C47.8926 15.9697 47.418 15.7852 47.0664 15.3984C46.7148 15.0205 46.5391 14.5283 46.5391 13.9131C46.5391 13.3066 46.7148 12.8145 47.0664 12.4365C47.418 12.0586 47.8838 11.8652 48.4727 11.8652C49.0527 11.8652 49.5273 12.0586 49.8965 12.4277C50.2656 12.7969 50.4502 13.2891 50.4502 13.8955C50.4502 14.5283 50.2656 15.0293 49.8965 15.4072ZM59.6963 11.9531V9.87891H58.167V7.77832H55.6533V9.87891H54.1592V11.9531H55.6533V18H58.167V11.9531H59.6963ZM69.4082 9.87891H67.2988L67.1318 10.6699C66.5166 9.95801 65.6289 9.59766 64.4688 9.59766C63.6777 9.59766 62.9658 9.78223 62.3506 10.1514C61.7354 10.5205 61.252 11.0303 60.918 11.6895C60.5752 12.3574 60.4082 13.1221 60.4082 14.001C60.4082 14.8447 60.5664 15.5918 60.8828 16.2246C61.1992 16.8574 61.6475 17.3584 62.2275 17.71C62.8076 18.0615 63.4844 18.2373 64.2402 18.2373C64.8115 18.2373 65.3477 18.1318 65.8398 17.9209C66.332 17.71 66.71 17.4287 66.9912 17.0684V18H69.4082V9.87891ZM66.332 15.4072C65.9629 15.7852 65.4883 15.9697 64.9082 15.9697C64.3281 15.9697 63.8535 15.7852 63.502 15.3984C63.1504 15.0205 62.9746 14.5283 62.9746 13.9131C62.9746 13.3066 63.1504 12.8145 63.502 12.4365C63.8535 12.0586 64.3193 11.8652 64.9082 11.8652C65.4883 11.8652 65.9629 12.0586 66.332 12.4277C66.7012 12.7969 66.8857 13.2891 66.8857 13.8955C66.8857 14.5283 66.7012 15.0293 66.332 15.4072ZM71.333 5.65137V18H73.8467V5.65137H71.333ZM82.3896 17.4551C83.1367 16.9277 83.5938 16.2422 83.7695 15.3896H81.3174C81.2119 15.6357 81.0098 15.8291 80.7285 15.9785C80.4385 16.1279 80.0957 16.1982 79.7002 16.1982C79.1729 16.1982 78.7422 16.0576 78.4082 15.7676C78.0742 15.4863 77.8984 15.0996 77.8809 14.6162H83.6465C83.7168 14.3086 83.752 13.9395 83.752 13.5176C83.752 12.7617 83.5762 12.0938 83.2334 11.4961C82.8906 10.8984 82.4072 10.4326 81.7832 10.0986C81.1592 9.76465 80.4473 9.59766 79.6475 9.59766C78.8301 9.59766 78.1006 9.77344 77.4502 10.125C76.7998 10.4766 76.29 10.9863 75.9385 11.6367C75.5781 12.2959 75.4023 13.0518 75.4023 13.9131C75.4023 14.7744 75.5781 15.5303 75.9385 16.1807C76.29 16.8311 76.7998 17.3408 77.4502 17.7012C78.1006 18.0615 78.8477 18.2373 79.7002 18.2373C80.7373 18.2373 81.6338 17.9824 82.3896 17.4551ZM81.1768 12.9814H77.916C77.9336 12.5771 78.1006 12.252 78.3994 12.0059C78.6982 11.7686 79.085 11.6455 79.5596 11.6455C80.0166 11.6455 80.4033 11.7686 80.7021 12.0059C81.001 12.252 81.1592 12.5771 81.1768 12.9814ZM85.3691 11.6895C84.9912 12.3486 84.8066 13.0957 84.8066 13.9307C84.8066 14.7568 84.9912 15.5039 85.3691 16.1543C85.7471 16.8135 86.2744 17.3232 86.96 17.6924C87.6455 18.0615 88.4277 18.2373 89.3242 18.2373C90.1943 18.2373 90.9766 18.0615 91.6621 17.6924C92.3477 17.3232 92.875 16.8135 93.2529 16.1543C93.6309 15.5039 93.8242 14.7568 93.8242 13.9307C93.8242 13.0957 93.6309 12.3486 93.2529 11.6895C92.875 11.0303 92.3477 10.5205 91.6709 10.1514C90.9941 9.78223 90.2119 9.59766 89.3242 9.59766C88.4277 9.59766 87.6455 9.78223 86.96 10.1514C86.2744 10.5205 85.7471 11.0303 85.3691 11.6895ZM87.9092 15.4248C87.5488 15.0381 87.373 14.5283 87.373 13.9131C87.373 13.3066 87.5488 12.8145 87.9092 12.4277C88.2607 12.041 88.7354 11.8477 89.3242 11.8477C89.9043 11.8477 90.3789 12.041 90.7305 12.4277C91.082 12.8145 91.2666 13.3066 91.2666 13.9131C91.2666 14.5283 91.082 15.0381 90.7217 15.4248C90.3613 15.8115 89.8955 16.0049 89.3242 16.0049C88.7441 16.0049 88.2695 15.8115 87.9092 15.4248ZM102.394 10.5117C101.849 9.90527 101.093 9.59766 100.126 9.59766C99.5986 9.59766 99.1064 9.70312 98.6582 9.91406C98.21 10.125 97.8584 10.415 97.6123 10.7666L97.4453 9.87891H95.3623V18H97.8584V13.4824C97.8584 12.9814 97.9814 12.5859 98.2275 12.3047C98.4736 12.0234 98.834 11.8828 99.3174 11.8828C100.231 11.8828 100.688 12.4453 100.688 13.5527V18H103.211V12.9639C103.211 11.9443 102.938 11.127 102.394 10.5117Z" fill="#000"/>
<path d="M12.6442 1.81221L2.06426 11.1002C0.924199 12.1011 0.80343 13.8458 1.79451 14.9972C2.78559 16.1486 4.51322 16.2707 5.65328 15.2698L16.2332 5.98179C17.3732 4.98094 17.494 3.2362 16.5029 2.0848C15.5118 0.933405 13.7842 0.811362 12.6442 1.81221Z" fill="#000"/>
<path d="M18.3477 8.95466L8.02784 18.0173C6.88794 19.0184 6.76715 20.7634 7.75805 21.9149C8.74894 23.0665 10.4763 23.1885 11.6162 22.1875L21.936 13.1248C23.0759 12.1238 23.1967 10.3788 22.2058 9.2272C21.2149 8.07565 19.4876 7.95362 18.3477 8.95466Z" fill="#000"/>
</svg>
